<svg width="192" height="192" viewBox="0 0 192 192" fill="none" xmlns="http://www.w3.org/2000/svg">
<rect x="2.5" y="2.5" width="187" height="187" rx="7.5" fill="#008FC4" stroke="#F7F7F7" stroke-width="5"/>
<path d="M88.12 30.32V38.96H73.144V80H62.2V38.96H47.224V30.32H88.12ZM113.448 29.312C117.384 29.312 120.696 29.744 123.384 30.608C126.12 31.424 128.328 32.816 130.008 34.784C131.688 36.752 132.912 39.392 133.68 42.704C134.448 46.016 134.832 50.168 134.832 55.16C134.832 60.152 134.448 64.304 133.68 67.616C132.912 70.928 131.688 73.568 130.008 75.536C128.328 77.504 126.12 78.896 123.384 79.712C120.696 80.528 117.384 80.936 113.448 80.936C109.512 80.936 106.176 80.528 103.44 79.712C100.704 78.896 98.4957 77.504 96.8157 75.536C95.1357 73.568 93.9117 70.928 93.1437 67.616C92.4237 64.304 92.0637 60.152 92.0637 55.16C92.0637 50.168 92.4237 46.016 93.1437 42.704C93.9117 39.392 95.1357 36.752 96.8157 34.784C98.4957 32.816 100.704 31.424 103.44 30.608C106.176 29.744 109.512 29.312 113.448 29.312ZM113.448 37.952C110.904 37.952 108.912 38.456 107.472 39.464C106.08 40.472 105.072 42.224 104.448 44.72C103.872 47.216 103.584 50.696 103.584 55.16C103.584 59.624 103.872 63.104 104.448 65.6C105.072 68.096 106.08 69.848 107.472 70.856C108.912 71.816 110.904 72.296 113.448 72.296C115.944 72.296 117.912 71.816 119.352 70.856C120.792 69.848 121.8 68.096 122.376 65.6C122.952 63.104 123.24 59.624 123.24 55.16C123.24 50.696 122.952 47.216 122.376 44.72C121.8 42.224 120.792 40.472 119.352 39.464C117.912 38.456 115.944 37.952 113.448 37.952ZM70.48 115.6C75.712 115.6 79.864 116.368 82.936 117.904C86.056 119.44 88.312 122.056 89.704 125.752C91.096 129.448 91.792 134.584 91.792 141.16C91.792 147.736 91.096 152.872 89.704 156.568C88.312 160.264 86.056 162.88 82.936 164.416C79.864 165.904 75.712 166.648 70.48 166.648C66.688 166.648 63.208 166.576 60.04 166.432C56.872 166.336 53.872 166.192 51.04 166V116.32C53.92 116.128 56.92 115.96 60.04 115.816C63.16 115.672 66.64 115.6 70.48 115.6ZM70.48 124.024C68.896 124.024 67.384 124.024 65.944 124.024C64.552 124.024 63.232 124.048 61.984 124.096V158.152C64.576 158.2 67.408 158.224 70.48 158.224C72.976 158.224 74.92 157.744 76.312 156.784C77.704 155.776 78.688 154.024 79.264 151.528C79.888 149.032 80.2 145.576 80.2 141.16C80.2 136.744 79.888 133.288 79.264 130.792C78.688 128.296 77.704 126.544 76.312 125.536C74.92 124.528 72.976 124.024 70.48 124.024ZM119.916 115.312C123.852 115.312 127.164 115.744 129.852 116.608C132.588 117.424 134.796 118.816 136.476 120.784C138.156 122.752 139.38 125.392 140.148 128.704C140.916 132.016 141.3 136.168 141.3 141.16C141.3 146.152 140.916 150.304 140.148 153.616C139.38 156.928 138.156 159.568 136.476 161.536C134.796 163.504 132.588 164.896 129.852 165.712C127.164 166.528 123.852 166.936 119.916 166.936C115.98 166.936 112.644 166.528 109.908 165.712C107.172 164.896 104.964 163.504 103.284 161.536C101.604 159.568 100.38 156.928 99.6124 153.616C98.8924 150.304 98.5324 146.152 98.5324 141.16C98.5324 136.168 98.8924 132.016 99.6124 128.704C100.38 125.392 101.604 122.752 103.284 120.784C104.964 118.816 107.172 117.424 109.908 116.608C112.644 115.744 115.98 115.312 119.916 115.312ZM119.916 123.952C117.372 123.952 115.38 124.456 113.94 125.464C112.548 126.472 111.54 128.224 110.916 130.72C110.34 133.216 110.052 136.696 110.052 141.16C110.052 145.624 110.34 149.104 110.916 151.6C111.54 154.096 112.548 155.848 113.94 156.856C115.38 157.816 117.372 158.296 119.916 158.296C122.412 158.296 124.38 157.816 125.82 156.856C127.26 155.848 128.268 154.096 128.844 151.6C129.42 149.104 129.708 145.624 129.708 141.16C129.708 136.696 129.42 133.216 128.844 130.72C128.268 128.224 127.26 126.472 125.82 125.464C124.38 124.456 122.412 123.952 119.916 123.952Z" fill="white"/>
</svg>
