<svg width="192" height="192" viewBox="0 0 192 192" fill="none" xmlns="http://www.w3.org/2000/svg">
<circle cx="96" cy="96" r="91" fill="#0061A8" stroke="#FFFBFB" stroke-width="10"/>
<path d="M36.016 99.176C36.016 93.992 37.552 88.856 40.624 83.768C37.072 81.512 35.296 78.176 35.296 73.76C35.296 68.432 37.648 63.704 42.352 59.576C47.632 54.92 54.448 52.592 62.8 52.592C66.64 52.592 70.768 53.144 75.184 54.248C76.192 54.488 80.488 56.36 88.072 59.864C95.656 63.32 101.104 65.048 104.416 65.048C106.624 65.048 108.28 64.424 109.384 63.176C109.96 62.552 110.248 61.88 110.248 61.16C110.248 60.44 109.936 59.792 109.312 59.216C108.976 58.736 108.808 58.424 108.808 58.28C108.808 58.136 108.928 58.064 109.168 58.064C109.456 58.064 109.912 58.496 110.536 59.36C111.208 60.176 111.544 61.16 111.544 62.312C111.544 63.416 110.776 64.496 109.24 65.552C107.752 66.56 105.856 67.064 103.552 67.064C99.952 67.064 94.36 65.336 86.776 61.88C79.192 58.376 74.416 56.432 72.448 56.048C70.528 55.664 68.32 55.472 65.824 55.472C55.888 55.472 48.064 58.688 42.352 65.12C41.68 65.84 40.888 67.304 39.976 69.512C39.064 71.672 38.608 73.76 38.608 75.776C38.608 78.56 39.592 80.72 41.56 82.256C44.056 78.608 47.008 75.704 50.416 73.544C53.824 71.384 57.28 70.304 60.784 70.304C65.104 70.304 67.264 71.984 67.264 75.344C67.264 79.376 64.888 83.768 60.136 88.52C55.432 93.224 51.064 95.576 47.032 95.576C44.44 95.576 43.144 94.472 43.144 92.264C43.144 91.496 43.336 90.824 43.72 90.248C44.152 89.672 44.656 89.456 45.232 89.6L45.088 91.256C45.088 91.976 46.192 92.336 48.4 92.336C51.664 92.336 55.096 90.656 58.696 87.296C62.344 83.936 64.552 80.648 65.32 77.432C65.512 76.712 65.608 76.064 65.608 75.488C65.608 73.328 64.216 72.248 61.432 72.248C58.696 72.248 55.84 73.304 52.864 75.416C49.936 77.528 47.176 80.312 44.584 83.768C44.776 83.864 45.52 84.056 46.816 84.344L51.136 84.488C53.248 84.584 54.304 84.824 54.304 85.208C54.304 85.88 53.296 86.216 51.28 86.216C51.136 86.216 50.992 86.216 50.848 86.216C47.92 86.216 45.52 85.856 43.648 85.136C39.952 90.8 38.104 96.008 38.104 100.76C38.104 106.904 40.48 109.976 45.232 109.976C50.608 109.976 56.2 106.232 62.008 98.744L76.12 77.72C81.4 70.04 85.984 66.104 89.872 65.912L92.608 66.56C93.472 67.04 93.904 67.76 93.904 68.72C93.904 69.68 93.664 70.16 93.184 70.16L90.88 69.8C87.568 69.8 83.32 73.376 78.136 80.528L63.808 100.544C57.664 107.696 51.784 111.272 46.168 111.272C42.328 111.272 39.664 110.24 38.176 108.176C36.736 106.112 36.016 103.112 36.016 99.176ZM100.394 88.736C100.394 90.416 98.7856 93.224 95.5696 97.16C91.7776 101.816 88.5376 104.144 85.8496 104.144H84.6976C83.4496 104.144 82.4656 103.496 81.7456 102.2C81.1696 101.288 80.8816 100.28 80.8816 99.176C80.8816 96.296 82.9696 92.264 87.1456 87.08C91.3696 81.848 94.7776 79.232 97.3696 79.232C99.8176 79.232 101.042 80.528 101.042 83.12C101.042 83.792 100.922 84.656 100.682 85.712C100.73 85.856 101.186 85.928 102.05 85.928C102.914 85.928 104.234 85.472 106.01 84.56C105.962 85.376 104.066 86.552 100.322 88.088C100.37 88.28 100.394 88.496 100.394 88.736ZM95.7136 84.992C94.0816 84.992 91.7536 86.912 88.7296 90.752C85.7536 94.592 84.2656 97.424 84.2656 99.248C84.2656 101.072 84.8416 101.984 85.9936 101.984C88.0576 101.984 90.6736 100.112 93.8416 96.368C97.0096 92.624 98.5936 89.936 98.5936 88.304C97.8256 87.872 96.8656 86.768 95.7136 84.992ZM125.54 82.184C130.916 73.448 134.66 69.08 136.772 69.08C137.108 69.08 137.564 69.2 138.14 69.44C138.764 69.632 139.076 69.944 139.076 70.376C139.076 70.616 138.956 70.928 138.716 71.312C134.876 76.016 132.02 79.544 130.148 81.896C124.484 89.048 121.364 94.184 120.788 97.304C120.644 97.976 120.572 98.648 120.572 99.32C120.572 101.48 121.46 102.56 123.236 102.56C126.788 102.56 131.42 99.272 137.132 92.696C137.612 92.216 138.02 91.952 138.356 91.904C138.692 91.808 138.86 91.88 138.86 92.12C138.86 92.36 138.716 92.648 138.428 92.984C132.86 99.656 127.916 103.376 123.596 104.144C123.356 104.192 123.02 104.216 122.588 104.216C121.1 104.216 119.972 103.712 119.204 102.704C118.484 101.648 118.124 100.52 118.124 99.32C118.124 97.976 118.388 96.488 118.916 94.856L113.084 100.688C110.444 103.136 108.356 104.36 106.82 104.36C105.332 104.36 104.084 103.952 103.076 103.136C101.876 102.224 101.276 100.952 101.276 99.32C101.276 95.816 103.724 91.64 108.62 86.792C113.516 81.896 118.004 79.448 122.084 79.448C123.428 79.448 124.364 79.808 124.892 80.528C125.084 80.768 125.3 81.32 125.54 82.184ZM104.3 100.184C104.3 101.912 104.9 102.776 106.1 102.776C108.164 102.776 111.596 99.944 116.396 94.28C117.26 93.272 120.14 89.504 125.036 82.976C124.7 82.4 124.124 82.112 123.308 82.112C120.332 82.112 116.42 84.392 111.572 88.952C106.724 93.464 104.3 97.208 104.3 100.184ZM154.253 88.736C154.253 90.416 152.645 93.224 149.429 97.16C145.637 101.816 142.397 104.144 139.709 104.144H138.557C137.309 104.144 136.325 103.496 135.605 102.2C135.029 101.288 134.741 100.28 134.741 99.176C134.741 96.296 136.829 92.264 141.005 87.08C145.229 81.848 148.637 79.232 151.229 79.232C153.677 79.232 154.901 80.528 154.901 83.12C154.901 83.792 154.781 84.656 154.541 85.712C154.589 85.856 155.045 85.928 155.909 85.928C156.773 85.928 158.093 85.472 159.869 84.56C159.821 85.376 157.925 86.552 154.181 88.088C154.229 88.28 154.253 88.496 154.253 88.736ZM149.573 84.992C147.941 84.992 145.613 86.912 142.589 90.752C139.613 94.592 138.125 97.424 138.125 99.248C138.125 101.072 138.701 101.984 139.853 101.984C141.917 101.984 144.533 100.112 147.701 96.368C150.869 92.624 152.453 89.936 152.453 88.304C151.685 87.872 150.725 86.768 149.573 84.992Z" fill="#FFF1F1"/>
</svg>
